<?xml version="1.0" encoding="UTF-8"?>
<svg width="32px" height="32px" viewBox="0 0 32 32" version="1.1" xmlns="http://www.w3.org/2000/svg" xmlns:xlink="http://www.w3.org/1999/xlink">
    <title>favicon</title>
    <g id="favicon" stroke="none" stroke-width="1" fill="none" fill-rule="evenodd">
        <rect fill="#FDED06" x="0" y="0" width="32" height="32"></rect>
        <path d="M15.280597,4.5 C19.8135372,4.5 21.9011105,5.46268333 23.7359723,7.18817376 C25.4098587,8.78323296 26.5,11.4079165 26.5,14.2477876 C26.5,17.3655229 25.3984779,19.5713207 23.7313463,21.3952942 C21.8194335,23.4820427 18.7901054,24.4334877 15.0336052,24.4966234 L14.6283582,24.5 L10.1477612,24.5 C9.40103406,24.5 8.9679317,24.4095536 8.69803115,24.18094 C8.45350134,23.9738161 8.28770337,23.6452837 8.26176849,23.0053883 L8.25820896,22.8230088 L8.25820896,8.08259587 C8.25820896,7.90475733 8.0793881,7.78615596 7.91157799,7.68467045 C7.59116487,7.49089615 7.15765564,7.37758112 6.76567164,7.37758112 C6.26930396,7.37758112 5.98657534,7.25514862 5.80076867,7.06473383 C5.61923514,6.87869815 5.5,6.59337078 5.5,6.09292035 C5.5,5.72941575 5.58325454,5.46975289 5.70928078,5.28294408 C6.8618654,4.78542554 7.54248697,4.71857625 8.24248499,4.66233569 C9.65078509,4.55692516 10.5651811,4.50648152 10.9323795,4.50058783 L10.9985075,4.5 L15.280597,4.5 Z M13.2987522,7.50040098 C12.9662822,7.50160913 12.7416843,7.48560614 12.5,7.72249107 L12.5,7.72249107 L12.5,20.8764045 L12.4998854,20.9802821 C12.5005829,21.1479868 12.5111205,21.2866899 12.6124609,21.3682073 C12.7660679,21.4917675 13.0285209,21.5 13.3968254,21.5 L13.3968254,21.5 L14.9391534,21.5 L15.2233739,21.498179 C17.2196288,21.4721315 19.343151,21.1551372 20.7321137,19.8144123 C21.8663983,18.7195206 22.5,16.9687249 22.5,15.1741573 C22.5,12.8284136 21.7195981,10.8972044 20.3247063,9.55075628 C18.660917,7.94474919 17.0377315,7.5000204 13.2987522,7.50040098 Z" id="D" stroke="#000863" fill="#333A90" fill-rule="nonzero"></path>
        <path d="M32,32 L-1.25309485e-13,32 C-0.13143445,28.8787226 0.0749578152,27.260643 0.619176794,27.1457614 C1.06677271,27.0512732 1.40504578,26.9845332 1.6450075,27.354436 C2.36989786,28.2734645 3.15915204,29.1396938 4.06833866,29.8993027 C5.51192486,31.124726 5.45538808,29.8533817 6.91352765,28.1213943 C7.32624413,27.4874034 8.79620218,26.3584108 10.2234033,27.4731759 C11.8697514,28.5771272 14.3573732,30.5111402 14.9171888,29.7543208 C15.7964924,28.8814649 16.145965,28.2251966 16.7010826,27.8408274 C18.3457903,26.7020175 19.2401012,27.1241622 20.6099274,28.5164309 C21.4168789,29.1615095 22.5295182,29.9613714 23.4812306,29.6351223 C23.998115,29.4579311 24.3386969,28.802927 25.071059,27.8348473 C25.3563599,27.3303275 26.702965,26.6332968 27.7439941,27.2291618 L32,29 L32,32 Z" id="water-fill" fill="#71BD99" fill-rule="nonzero"></path>
        <path d="M0.038351795,30 C-0.0930826545,28.2120559 0.11330961,27.260643 0.657528589,27.1457614 C1.10512451,27.0512732 1.44339757,26.9845332 1.68335929,27.354436 C2.40824965,28.2734645 3.19750384,29.1396938 4.10669046,29.8993027 C5.55027666,31.124726 5.49373988,29.8533817 6.95187944,28.1213943 C7.36459592,27.4874034 8.83455398,26.3584108 10.2617551,27.4731759 C11.9081032,28.5771272 14.395725,30.5111402 14.9555406,29.7543208 C15.8348442,28.8814649 16.1843168,28.2251966 16.7394344,27.8408274 C18.3841421,26.7020175 19.278453,27.1241622 20.6482792,28.5164309 C21.4552307,29.1615095 22.56787,29.9613714 23.5195824,29.6351223 C24.0364668,29.4579311 24.3770487,28.802927 25.1094108,27.8348473 C25.3947117,27.3303275 26.7413168,26.6332968 27.7823459,27.2291618 L32.0383518,29" id="Path" stroke="#74ADAC" stroke-linecap="round" stroke-linejoin="round" fill-rule="nonzero"></path>
    </g>
</svg>
